# xmcd CD database file
#
# Track frame offsets:
#	150
#	13475
#	29315
#	41060
#	55160
#	68170
#	83767
#	97807
#	112060
#	124630
#
# Disc length: 1828 seconds
#
# Revision: 2
# Processed by: cddbd v1.5.2PL0 Copyright (c) Steve Scherf et al.
# Submitted via: CDex 1.79
#
DISCID=8007220a
DTITLE=Larry Boone - One Way To Go
DYEAR=1991
DGENRE=Country
TTITLE0=Rock On The Road
TTITLE1=I Need A Miracle
TTITLE2=One Way To Go
TTITLE3=It Wouldn't Kill Me
TTITLE4=Keeper Of My Heart
TTITLE5=Standing In The River
TTITLE6=To Be With You
TTITLE7=All I Have To Offer You Is Me
TTITLE8=I Still Do
TTITLE9=Where My Heart Aches To Be
EXTD=YEAR: 1991
EXTT0=
EXTT1=
EXTT2=
EXTT3=
EXTT4=
EXTT5=
EXTT6=
EXTT7=
EXTT8=
EXTT9=
PLAYORDER=
